<svg xmlns="http://www.w3.org/2000/svg" viewBox="0 0 480 480">
  <defs>
    <radialGradient id="bg1" cx="50%" cy="50%" r="50%"><stop offset="0%" stop-color="#FFFDE7"/><stop offset="100%" stop-color="#FFF8E1"/></radialGradient>
    <filter id="s1"><feDropShadow dx="0" dy="4" stdDeviation="6" flood-color="rgba(200,150,0,.2)"/></filter>
    <filter id="s2"><feDropShadow dx="0" dy="2" stdDeviation="3" flood-color="rgba(200,150,0,.15)"/></filter>
  </defs>
  <rect width="480" height="480" fill="url(#bg1)" rx="24"/>
  <!-- Jar -->
  <ellipse cx="240" cy="295" rx="68" ry="18" fill="#E8C842" opacity=".25"/>
  <rect x="188" y="210" width="104" height="120" rx="18" fill="#F9ECA0" filter="url(#s1)"/>
  <rect x="188" y="210" width="104" height="30" rx="10" fill="#F4D03F"/>
  <rect x="188" y="225" width="104" height="15" fill="#F4D03F"/>
  <ellipse cx="240" cy="210" rx="52" ry="14" fill="#E8B820"/>
  <rect x="210" y="196" width="60" height="18" rx="8" fill="#C8901A"/>
  <rect x="224" y="190" width="32" height="8" rx="4" fill="#B07810"/>
  <!-- Stars inside jar -->
  <polygon points="240,235 243,244 253,244 245,250 248,259 240,254 232,259 235,250 227,244 237,244" fill="#F59E0B" opacity=".8"/>
  <text x="240" y="296" text-anchor="middle" font-size="11" fill="#8B6914" font-family="Georgia" font-style="italic">ước mơ</text>
  <!-- Floating origami stars -->
  <polygon points="100,140 103,150 113,150 105,156 108,166 100,160 92,166 95,156 87,150 97,150" fill="#FCD34D" filter="url(#s2)"/>
  <polygon points="340,105 343,114 352,114 345,119 348,128 340,123 332,128 335,119 328,114 337,114" fill="#FBBF24" filter="url(#s2)"/>
  <polygon points="370,200 372,207 379,207 373,211 375,218 370,214 365,218 367,211 361,207 368,207" fill="#F59E0B" opacity=".7" filter="url(#s2)"/>
  <polygon points="110,220 112,227 119,227 113,231 115,238 110,234 105,238 107,231 101,227 108,227" fill="#FCD34D" opacity=".8" filter="url(#s2)"/>
  <polygon points="290,155 292,162 299,162 293,166 295,173 290,169 285,173 287,166 281,162 288,162" fill="#FBBF24" opacity=".6" filter="url(#s2)"/>
  <!-- Ribbon -->
  <path d="M214,210 Q240,185 266,210" stroke="#E8A820" stroke-width="3" fill="none"/>
  <circle cx="240" cy="183" r="6" fill="#F4D03F"/>
</svg>
